# File created by Blade
# Date/Time:  Fri Jan 16 19:14:28 2015
# Frame Rate: 120.000 fps
#------------------------------------------------------
:FULLY-SPECIFIED
:DEGREES
311
root 19.009847 35.789984 -22.309793 -167.690491 -1.578680 -178.329293
Spine -26.464218 0.391664 -0.117811
Head 15.572843 -1.177676 1.554923
LeftShoulder -20.993916 -68.952047 72.504616
LeftArm 47.204405 -20.088749 5.225833
LeftForeArm 1.064717 -0.000000 6.159810
LeftHand 1.509520 -0.000000 -22.566584
LeftHandThumb1 -26.253704 0.000000 33.147579
RightShoulder -9.454732 20.423708 -46.363523
RightArm 37.102871 49.887598 -24.396418
RightForeArm -46.242580 -0.000000 10.063082
RightHand -1.979750 -0.000000 6.830735
RightHandThumb1 -24.326973 -0.000000 -32.862282
LeftUpLeg -2.761447 7.132666 0.730013
LeftLeg -7.015667 -0.000000 0.000000
LeftFoot -20.314003 27.893525 -16.763545
LeftToeBase 23.407307 -0.000000 -0.000000
RightUpLeg -4.410287 -9.597472 1.588364
RightLeg -3.478964 -0.000000 0.000000
RightFoot -19.831313 -22.329098 21.176127
RightToeBase 22.376179 -0.000000 -0.000000
312
root 19.007268 35.790167 -22.299603 -167.644370 -1.528726 -178.335355
Spine -26.459005 0.402681 -0.137254
Head 15.539524 -1.178135 1.588600
LeftShoulder -21.148086 -68.886025 72.628259
LeftArm 47.221892 -20.163264 5.204521
LeftForeArm 1.096776 -0.000000 6.196600
LeftHand 1.489244 -0.000000 -22.615604
LeftHandThumb1 -26.253704 0.000000 33.147579
RightShoulder -9.451505 20.414064 -46.300818
RightArm 37.003858 50.040938 -24.401623
RightForeArm -46.441119 -0.000000 10.334663
RightHand -2.156808 -0.000000 6.973682
RightHandThumb1 -24.326973 -0.000000 -32.862282
LeftUpLeg -2.800249 7.142857 0.706401
LeftLeg -7.048281 -0.000000 0.000000
LeftFoot -20.298982 27.934520 -16.763579
LeftToeBase 23.427189 -0.000000 -0.000000
RightUpLeg -4.477557 -9.533773 1.578016
RightLeg -3.477336 -0.000000 0.000000
RightFoot -19.815387 -22.356846 21.127124
RightToeBase 22.386681 -0.000000 -0.000000
313
root 19.003010 35.789969 -22.294414 -167.623693 -1.524769 -178.340259
Spine -26.440857 0.390999 -0.121038
Head 15.532040 -1.142554 1.563186
LeftShoulder -21.282679 -68.919406 72.707587
LeftArm 47.207266 -20.113453 5.255663
LeftForeArm 1.028014 -0.000000 6.254253
LeftHand 1.451529 0.000000 -22.651463
LeftHandThumb1 -26.253704 0.000000 33.147579
RightShoulder -9.440247 20.357963 -46.260893
RightArm 36.868089 50.169914 -24.492600
RightForeArm -46.490596 0.000000 10.540035
RightHand -2.192436 0.000000 6.942644
RightHandThumb1 -24.326973 -0.000000 -32.862282
LeftUpLeg -2.815604 7.141623 0.691737
LeftLeg -7.074364 -0.000000 0.000000
LeftFoot -20.278638 27.932784 -16.755618
LeftToeBase 23.432163 -0.000000 -0.000000
RightUpLeg -4.494626 -9.543373 1.571635
RightLeg -3.503864 -0.000000 0.000000
RightFoot -19.790712 -22.349954 21.110162
RightToeBase 22.405522 -0.000000 -0.000000
314
root 18.999626 35.789791 -22.289681 -167.604487 -1.518293 -178.343045
Spine -26.418545 0.378996 -0.117014
Head 15.509645 -1.090046 1.588736
LeftShoulder -21.457159 -68.925258 72.842459
LeftArm 47.187969 -20.091083 5.275075
LeftForeArm 0.976620 -0.000000 6.321593
LeftHand 1.411040 -0.000000 -22.678585
LeftHandThumb1 -26.253704 0.000000 33.147579
RightShoulder -9.438635 20.311369 -46.207057
RightArm 36.707840 50.250440 -24.627753
RightForeArm -46.514359 -0.000000 10.721610
RightHand -2.112555 -0.000000 6.808379
RightHandThumb1 -24.326973 -0.000000 -32.862282
LeftUpLeg -2.834199 7.151527 0.678337
LeftLeg -7.089691 -0.000000 0.000000
LeftFoot -20.256170 27.942115 -16.717480
LeftToeBase 23.410075 -0.000000 -0.000000
RightUpLeg -4.511556 -9.531969 1.566179
RightLeg -3.526630 -0.000000 0.000000
RightFoot -19.780428 -22.351821 21.127504
RightToeBase 22.632913 -0.000000 -0.000000
315
root 18.996398 35.789129 -22.285049 -167.580605 -1.503164 -178.343262
Spine -26.407473 0.390520 -0.108124
Head 15.499819 -1.074290 1.550640
LeftShoulder -21.600459 -68.938789 72.928853
LeftArm 47.189890 -20.099782 5.255836
LeftForeArm 0.942893 0.000000 6.373080
LeftHand 1.309665 -0.000000 -22.856378
LeftHandThumb1 -26.253704 0.000000 33.147579
RightShoulder -9.447321 20.222717 -46.182152
RightArm 36.515877 50.309688 -24.800558
RightForeArm -46.534545 -0.000000 10.836770
RightHand -2.154426 -0.000000 6.791659
RightHandThumb1 -24.326973 -0.000000 -32.862282
LeftUpLeg -2.850855 7.155233 0.667470
LeftLeg -7.113911 -0.000000 0.000000
LeftFoot -20.247141 27.952738 -16.706479
LeftToeBase 23.434029 -0.000000 -0.000000
RightUpLeg -4.539577 -9.518505 1.561362
RightLeg -3.533128 -0.000000 0.000000
RightFoot -19.782859 -22.362533 21.119762
RightToeBase 22.424401 -0.000000 -0.000000
316
root 18.994699 35.788903 -22.277258 -167.540300 -1.452918 -178.333470
Spine -26.407222 0.433467 -0.103303
Head 15.476910 -1.040763 1.536876
LeftShoulder -21.728971 -68.928285 73.004232
LeftArm 47.187652 -20.131905 5.249496
LeftForeArm 0.892529 0.000000 6.417439
LeftHand 1.297009 0.000000 -22.880447
LeftHandThumb1 -26.253704 0.000000 33.147579
RightShoulder -9.455582 20.056939 -46.118535
RightArm 36.253868 50.431317 -25.069151
RightForeArm -46.470530 -0.000000 10.927671
RightHand -2.194474 -0.000000 6.762019
RightHandThumb1 -24.326973 -0.000000 -32.862282
LeftUpLeg -2.890053 7.205750 0.657624
LeftLeg -7.129707 -0.000000 0.000000
LeftFoot -20.242383 27.957304 -16.701094
LeftToeBase 23.429287 -0.000000 -0.000000
RightUpLeg -4.606153 -9.453292 1.566922
RightLeg -3.518610 -0.000000 0.000000
RightFoot -19.780739 -22.390850 21.097567
RightToeBase 22.440448 -0.000000 -0.000000
317
root 18.990139 35.787823 -22.275501 -167.523994 -1.475153 -178.340560
Spine -26.398314 0.394648 -0.113278
Head 15.481228 -1.085151 1.539405
LeftShoulder -21.216391 -68.554701 72.389480
LeftArm 47.192304 -20.530151 5.472109
LeftForeArm 0.725423 -0.000000 6.362676
LeftHand 1.332586 -0.000000 -22.903024
LeftHandThumb1 -26.253704 0.000000 33.147579
RightShoulder -9.682672 20.520894 -46.223272
RightArm 36.953838 50.216848 -24.349476
RightForeArm -46.552357 -0.000000 11.143451
RightHand -2.280614 -0.000000 6.680341
RightHandThumb1 -24.326973 -0.000000 -32.862282
LeftUpLeg -2.901590 7.169029 0.648218
LeftLeg -7.147775 -0.000000 0.000000
LeftFoot -20.226272 27.964127 -16.686113
LeftToeBase 23.409536 -0.000000 -0.000000
RightUpLeg -4.612744 -9.503261 1.562196
RightLeg -3.539200 -0.000000 0.000000
RightFoot -19.762625 -22.365640 21.078343
RightToeBase 22.425794 -0.000000 -0.000000
318
root 18.986163 35.787096 -22.272717 -167.506880 -1.487157 -178.339725
Spine -26.390304 0.383171 -0.094662
Head 15.449916 -0.965212 1.583403
LeftShoulder -21.130116 -68.450120 72.212338
LeftArm 47.204295 -20.688355 5.516266
LeftForeArm 0.753358 -0.000000 6.410959
LeftHand 1.406808 -0.000000 -22.783326
LeftHandThumb1 -26.253704 0.000000 33.147579
RightShoulder -9.692159 20.458441 -46.181911
RightArm 36.886243 50.416363 -24.352980
RightForeArm -46.606300 0.000000 11.427570
RightHand -2.430124 0.000000 6.854245
RightHandThumb1 -24.326973 -0.000000 -32.862282
LeftUpLeg -2.920512 7.156507 0.642931
LeftLeg -7.154998 -0.000000 0.000000
LeftFoot -20.231879 27.967061 -16.663144
LeftToeBase 23.469653 -0.000000 -0.000000
RightUpLeg -4.629515 -9.524127 1.562229
RightLeg -3.545359 -0.000000 0.000000
RightFoot -19.754814 -22.356434 21.079578
RightToeBase 22.377921 -0.000000 -0.000000
319
root 18.982705 35.786348 -22.268323 -167.484664 -1.483579 -178.339886
Spine -26.369739 0.360070 -0.089311
Head 15.433216 -0.984933 1.557765
LeftShoulder -21.498228 -68.531880 72.542104
LeftArm 47.241077 -20.646450 5.401828
LeftForeArm 0.850960 -0.000000 6.527457
LeftHand 1.365702 -0.000000 -22.794501
LeftHandThumb1 -26.253704 0.000000 33.147579
RightShoulder -9.654600 20.364693 -46.063746
RightArm 36.669974 50.744354 -24.418240
RightForeArm -46.900129 -0.000000 11.898855
RightHand -3.090781 -0.000000 7.390170
RightHandThumb1 -24.326973 -0.000000 -32.862282
LeftUpLeg -2.942594 7.150903 0.633605
LeftLeg -7.165712 -0.000000 0.000000
LeftFoot -20.212324 27.977263 -16.626591
LeftToeBase 23.424488 -0.000000 -0.000000
RightUpLeg -4.659252 -9.569669 1.571149
RightLeg -3.552762 -0.000000 0.000000
RightFoot -19.730950 -22.343896 21.025552
RightToeBase 22.389916 -0.000000 -0.000000
320
root 18.979579 35.785848 -22.262023 -167.444978 -1.461287 -178.346372
Spine -26.373030 0.363698 -0.105000
Head 15.402277 -0.989728 1.571510
LeftShoulder -21.695398 -68.535025 72.665772
LeftArm 47.285658 -20.710550 5.337368
LeftForeArm 0.995649 -0.000000 6.682631
LeftHand 1.288714 0.000000 -22.890154
LeftHandThumb1 -26.253704 0.000000 33.147579
RightShoulder -9.547499 20.272134 -45.939014
RightArm 36.373146 51.210002 -24.406782
RightForeArm -46.897080 0.000000 12.724936
RightHand -3.540582 0.000000 7.685517
RightHandThumb1 -24.326973 -0.000000 -32.862282
LeftUpLeg -2.988414 7.179741 0.609655
LeftLeg -7.170370 -0.000000 0.000000
LeftFoot -20.201147 27.975012 -16.609136
LeftToeBase 23.442903 -0.000000 -0.000000
RightUpLeg -4.720726 -9.558846 1.564836
RightLeg -3.537779 -0.000000 0.000000
RightFoot -19.729764 -22.351936 21.002523
RightToeBase 22.386186 -0.000000 -0.000000
321
root 18.976732 35.784780 -22.259672 -167.416013 -1.463617 -178.341513
Spine -26.372649 0.349128 -0.099854
Head 15.364180 -0.974286 1.603802
LeftShoulder -21.584157 -68.389615 72.427646
LeftArm 47.312015 -20.921640 5.434839
LeftForeArm 1.020079 -0.000000 6.825296
LeftHand 1.111332 -0.000000 -23.230676
LeftHandThumb1 -26.253704 0.000000 33.147579
RightShoulder -9.476206 20.298316 -45.835625
RightArm 36.278911 51.658818 -24.138436
RightForeArm -46.985159 0.000000 13.663499
RightHand -3.872215 -0.000000 7.660675
RightHandThumb1 -24.326973 -0.000000 -32.862282
LeftUpLeg -3.021544 7.186709 0.606547
LeftLeg -7.171461 -0.000000 0.000000
LeftFoot -20.199992 27.968728 -16.578632
LeftToeBase 23.431864 -0.000000 -0.000000
RightUpLeg -4.751499 -9.571895 1.573722
RightLeg -3.544693 -0.000000 0.000000
RightFoot -19.724204 -22.343882 20.989956
RightToeBase 22.454706 -0.000000 -0.000000
